<?xml version="1.0" encoding="UTF-8" standalone="no"?>
<svg width="400px" height="400px" viewBox="0 0 400 400" version="1.1" xmlns="http://www.w3.org/2000/svg" xmlns:xlink="http://www.w3.org/1999/xlink" xmlns:sketch="http://www.bohemiancoding.com/sketch/ns">
    <title>arrow-lock</title>
    <description>Created with Sketch (http://www.bohemiancoding.com/sketch)</description>
    <defs></defs>
    <g id="Page-1" stroke="none" stroke-width="1" fill="none" fill-rule="evenodd" sketch:type="MSPage">
        <g id="arrow-lock" sketch:type="MSArtboardGroup" fill="#000000">
            <path d="M257.294327,69.7207867 L292.467941,34.5471721 L292.467941,34.5471721 L257.896153,-0.0246161919 L393.564232,6.43576849 L400.024616,142.103847 L366.733264,108.812495 L310.091688,165.454072 C306.455559,161.098642 301.910717,157.528142 296.748869,155.033951 C296.915335,152.710985 297,150.36538 297,148 C297,115.860312 281.368981,87.371447 257.294327,69.7207868 Z M149.914583,323.070304 L107.532059,365.452828 L142.103847,400.024616 L6.43576849,393.564232 L-0.0246161919,257.896153 L33.2667355,291.187505 L33.2667355,291.187505 L80.371537,244.082703 L80.371537,283.069418 C80.371537,305.161297 98.286482,323.070304 120.374763,323.070304 L149.914583,323.070304 L149.914583,323.070304 Z M149.914583,323.070304" id="Triangle-1" sketch:type="MSShapeGroup"></path>
            <path d="M207.64918,236.256391 C212.61146,233.67223 216,228.481833 216,222.5 C216,214.107493 209.329976,207.272855 201.001811,207.007969 L201,207 L200.998215,207.007855 C200.832784,207.002632 200.666699,207 200.5,207 C191.939586,207 185,213.939586 185,222.5 C185,228.837557 188.803538,234.286749 194.252414,236.689378 L186,273 L216,273 L207.64918,236.256391 Z M244,147 C244,122.69947 224.30053,103 200,103 C175.69947,103 156,122.69947 156,147 L156,174 L244,174 L244,147.000015 L244,147 Z M274,174 L279.996219,174 C289.39497,174 297,181.609371 297,190.996006 L297,284.003994 C297,293.388808 289.387148,301 279.996219,301 L120.003781,301 C110.60503,301 103,293.390629 103,284.003994 L103,190.996006 C103,181.611192 110.612852,174 120.003781,174 L126,174 L126,147 C126,106.130926 159.130926,73 200,73 C240.869074,73 274,106.130926 274,147 L274,174 L274,174 Z M274,174" id="Rectangle-3" sketch:type="MSShapeGroup"></path>
        </g>
    </g>
</svg>