<?xml version="1.0" encoding="UTF-8" standalone="no"?>
<svg width="378px" height="394px" viewBox="0 0 378 394" version="1.1" xmlns="http://www.w3.org/2000/svg" xmlns:xlink="http://www.w3.org/1999/xlink" xmlns:sketch="http://www.bohemiancoding.com/sketch/ns">
    <title>black_rubik</title>
    <description>Created with Sketch (http://www.bohemiancoding.com/sketch)</description>
    <defs></defs>
    <g id="Page-1" stroke="none" stroke-width="1" fill="none" fill-rule="evenodd" sketch:type="MSPage">
        <g id="white_rubik" sketch:type="MSLayerGroup" transform="translate(3.000000, 1.000000)" stroke-width="2" stroke="#FFFFFF" fill="#000000">
            <g id="Page-1" sketch:type="MSShapeGroup">
                <g id="white_rubik">
                    <path d="M1.5391756,136.006087 L40.8846607,151.493735 L55.0010479,204.746617 L15.7046227,185.310486 L1.5391756,136.006087 L1.5391756,136.006087 Z" id="Path-14"></path>
                    <path d="M50.5193077,157.02189 L93.938604,174.12344 L109.658437,230.006408 L68.1077626,211.163039 L50.5193077,157.02189 L50.5193077,157.02189 Z" id="Path-14"></path>
                    <path d="M101.619079,175.565246 L151.990828,196.510444 L167.838215,254.519095 L119.588217,235.043341 L101.619079,175.565246 L101.619079,175.565246 Z" id="Path-14"></path>
                    <path d="M180.882069,262.619625 L230.1786,228.904328 L242.547214,286.073497 L195.280247,320.288163 L180.882069,262.619625 L180.882069,262.619625 Z" id="Path-23"></path>
                    <path d="M199.653762,336.120468 L247.075161,300.395102 L259.594736,354.212644 L212.542346,390.822973 L199.653762,336.120468 L199.653762,336.120468 Z" id="Path-23"></path>
                    <path d="M125.385216,247.449691 L137.896406,299.875227 L186.232581,322.705437 L172.787167,269.929145 L125.385216,247.449691 L125.385216,247.449691 Z" id="Path-19"></path>
                    <path d="M20.4800476,196.227986 L57.3399199,213.370313 L73.2893151,265.953797 L36.6619859,247.750624 L20.4800476,196.227986 L20.4800476,196.227986 Z" id="Path-17"></path>
                    <path d="M70.4979096,220.833029 L85.001346,270.384749 L125.226967,291.003526 L111.700998,241.085756 L70.4979096,220.833029 L70.4979096,220.833029 Z" id="Path-18"></path>
                    <path d="M38.1562012,257.638189 L53.4451177,303.948143 L92.85014,326.30569 L78.2987009,278.806827 L38.1562012,257.638189 L38.1562012,257.638189 Z" id="Path-20"></path>
                    <path d="M86.428673,283.241199 L100.986231,329.228577 L142.211584,353.94806 L129.455195,304.728558 L86.428673,283.241199 L86.428673,283.241199 Z" id="Path-21"></path>
                    <path d="M142.108216,313.746208 L155.230999,360.530375 L200.143117,386.154632 L188.559494,334.245699 L142.108216,313.746208 L142.108216,313.746208 Z" id="Path-22"></path>
                    <path d="M159.615533,194.037996 L214.098481,158.508206 L224.78641,217.523245 L174.929531,253.502876 L159.615533,194.037996 L159.615533,194.037996 Z" id="Path-23"></path>
                    <path d="M101.95077,163.945776 L154.308469,185.057049 L205.624623,150.513834 L153.265171,128.003452 L101.95077,163.945776 L101.95077,163.945776 Z" id="Path-26"></path>
                    <path d="M46.4827712,142.238355 L93.481677,159.545727 L143.209815,125.985149 L96.929588,108.41394 L46.4827712,142.238355 L46.4827712,142.238355 Z" id="Path-27"></path>
                    <path d="M-0.1264183,121.435585 L50.2683413,91.3159812 L88.818164,106.212733 L38.6768735,137.364891 L-0.1264183,121.435585 L-0.1264183,121.435585 Z" id="Path-28"></path>
                    <path d="M102.881995,64.7855423 L152.239237,34.9287439 L198.324059,75.8336539 L151.261442,109.058154 L102.881995,64.7855423 L102.881995,64.7855423 Z" id="Path-29"></path>
                    <path d="M161.314024,29.3537049 L208.715676,69.6332614 L254.0728,39.5037509 L208.715676,0.20796586 L161.314024,29.3537049 L161.314024,29.3537049 Z" id="Path-30"></path>
                    <path d="M218.177188,79.9774845 L266.09328,122.662335 L310.577778,90.533935 L262.805322,49.6391524 L218.177188,79.9774845 L218.177188,79.9774845 Z" id="Path-31"></path>
                    <path d="M275.799097,131.885404 L326.047591,176.110687 L371.044119,143.637405 L319.906783,99.150648 L275.799097,131.885404 L275.799097,131.885404 Z" id="Path-32"></path>
                    <path d="M220.820897,174.15971 L268.012204,139.676886 L317.674141,184.086147 L270.934767,219.770435 L220.820897,174.15971 L220.820897,174.15971 Z" id="Path-33"></path>
                    <path d="M274.860258,229.132825 L318.430603,194.037997 L302.311745,231.875204 L259.963439,263.571148 L274.860258,229.132825 L274.860258,229.132825 Z" id="Path-35"></path>
                    <path d="M371.334361,155.137615 L331.024314,185.542751 L316.70534,219.473328 L350.56179,195.54247 L371.334361,155.137615 L371.334361,155.137615 Z" id="Path-36"></path>
                    <path d="M295.069428,263.03879 L311.796169,228.758742 L349.258697,201.524636 L332.212034,236.121787 L295.069428,263.03879 L295.069428,263.03879 Z" id="Path-37"></path>
                    <path d="M277.208472,299.491926 L290.399362,271.409652 L327.194179,243.982432 L313.656616,272.895318 L277.208472,299.491926 L277.208472,299.491926 Z" id="Path-38"></path>
                    <path d="M278.256854,282.825362 L269.756653,305.58217 L259.059672,313.715134 L256.525366,300.927119 L278.256854,282.825362 L278.256854,282.825362 Z" id="Path-39"></path>
                    <path d="M251.885272,285.608381 L254.472901,273.787925 L298.154381,240.132208 L283.127011,273.047835 L254.472901,296.559532 L251.885272,285.608381 L251.885272,285.608381 Z" id="Path-40"></path>
                    <path d="M161.872672,118.303187 L208.13024,86.4079951 L256.397626,128.558014 L219.914369,155.813516 L213.429023,144.654568 L179.556548,130.92132 L161.872672,118.303187 L161.872672,118.303187 Z" id="Path-40"></path>
                </g>
            </g>
        </g>
    </g>
</svg>