<?xml version="1.0" encoding="UTF-8" standalone="no"?>
<svg width="400px" height="400px" viewBox="0 0 400 400" version="1.1" xmlns="http://www.w3.org/2000/svg" xmlns:xlink="http://www.w3.org/1999/xlink" xmlns:sketch="http://www.bohemiancoding.com/sketch/ns">
    <title>white_rubik</title>
    <description>Created with Sketch (http://www.bohemiancoding.com/sketch)</description>
    <defs></defs>
    <g id="Page-1" stroke="none" stroke-width="1" fill="none" fill-rule="evenodd" sketch:type="MSPage">
        <g id="white_rubik" sketch:type="MSArtboardGroup" stroke="#000000" stroke-width="2" fill="#FFFFFF" stroke-linejoin="round">
            <path d="M21.5391756,142.006087 L60.8846607,157.493735 L75.0010479,210.746617 L35.7046227,191.310486 L21.5391756,142.006087 Z M21.5391756,142.006087" id="Path-14" sketch:type="MSShapeGroup"></path>
            <path d="M70.5193077,163.02189 L113.938604,180.12344 L129.658437,236.006408 L88.1077626,217.163039 L70.5193077,163.02189 Z M70.5193077,163.02189" id="Path-14" sketch:type="MSShapeGroup"></path>
            <path d="M121.619079,181.565246 L171.990828,202.510444 L187.838215,260.519095 L139.588217,241.043341 L121.619079,181.565246 Z M121.619079,181.565246" id="Path-14" sketch:type="MSShapeGroup"></path>
            <path d="M200.882069,268.619625 L250.1786,234.904328 L262.547214,292.073497 L215.280247,326.288163 L200.882069,268.619625 Z M200.882069,268.619625" id="Path-23" sketch:type="MSShapeGroup"></path>
            <path d="M219.653762,342.120468 L267.075161,306.395102 L279.594736,360.212644 L232.542346,396.822973 L219.653762,342.120468 Z M219.653762,342.120468" id="Path-23" sketch:type="MSShapeGroup"></path>
            <path d="M145.385216,253.449691 L157.896406,305.875227 L206.232581,328.705437 L192.787167,275.929145 L145.385216,253.449691 Z M145.385216,253.449691" id="Path-19" sketch:type="MSShapeGroup"></path>
            <path d="M40.4800476,202.227986 L77.3399199,219.370313 L93.2893151,271.953797 L56.6619859,253.750624 L40.4800476,202.227986 Z M40.4800476,202.227986" id="Path-17" sketch:type="MSShapeGroup"></path>
            <path d="M90.4979096,226.833029 L105.001346,276.384749 L145.226967,297.003526 L131.700998,247.085756 L90.4979096,226.833029 Z M90.4979096,226.833029" id="Path-18" sketch:type="MSShapeGroup"></path>
            <path d="M58.1562012,263.638189 L73.4451177,309.948143 L112.85014,332.30569 L98.2987009,284.806827 L58.1562012,263.638189 Z M58.1562012,263.638189" id="Path-20" sketch:type="MSShapeGroup"></path>
            <path d="M106.428673,289.241199 L120.986231,335.228577 L162.211584,359.94806 L149.455195,310.728558 L106.428673,289.241199 Z M106.428673,289.241199" id="Path-21" sketch:type="MSShapeGroup"></path>
            <path d="M162.108216,319.746208 L175.230999,366.530375 L220.143117,392.154632 L208.559494,340.245699 L162.108216,319.746208 Z M162.108216,319.746208" id="Path-22" sketch:type="MSShapeGroup"></path>
            <path d="M179.615533,200.037996 L234.098481,164.508206 L244.78641,223.523245 L194.929531,259.502876 L179.615533,200.037996 Z M179.615533,200.037996" id="Path-23" sketch:type="MSShapeGroup"></path>
            <path d="M121.95077,169.945776 L174.308469,191.057049 L225.624623,156.513834 L173.265171,134.003452 L121.95077,169.945776 Z M121.95077,169.945776" id="Path-26" sketch:type="MSShapeGroup"></path>
            <path d="M66.4827712,148.238355 L113.481677,165.545727 L163.209815,131.985149 L116.929588,114.41394 L66.4827712,148.238355 Z M66.4827712,148.238355" id="Path-27" sketch:type="MSShapeGroup"></path>
            <path d="M19.8735817,127.435585 L70.2683413,97.3159812 L108.818164,112.212733 L58.6768735,143.364891 L19.8735817,127.435585 Z M19.8735817,127.435585" id="Path-28" sketch:type="MSShapeGroup"></path>
            <path d="M122.881995,70.7855423 L172.239237,40.9287439 L218.324059,81.8336539 L171.261442,115.058154 L122.881995,70.7855423 Z M122.881995,70.7855423" id="Path-29" sketch:type="MSShapeGroup"></path>
            <path d="M181.314024,35.3537049 L228.715676,75.6332614 L274.0728,45.5037509 L228.715676,6.20796586 L181.314024,35.3537049 Z M181.314024,35.3537049" id="Path-30" sketch:type="MSShapeGroup"></path>
            <path d="M238.177188,85.9774845 L286.09328,128.662335 L330.577778,96.533935 L282.805322,55.6391524 L238.177188,85.9774845 Z M238.177188,85.9774845" id="Path-31" sketch:type="MSShapeGroup"></path>
            <path d="M295.799097,137.885404 L346.047591,182.110687 L391.044119,149.637405 L339.906783,105.150648 L295.799097,137.885404 Z M295.799097,137.885404" id="Path-32" sketch:type="MSShapeGroup"></path>
            <path d="M240.820897,180.15971 L288.012204,145.676886 L337.674141,190.086147 L290.934767,225.770435 L240.820897,180.15971 Z M240.820897,180.15971" id="Path-33" sketch:type="MSShapeGroup"></path>
            <path d="M294.860258,235.132825 L338.430603,200.037997 L322.311745,237.875204 L279.963439,269.571148 L294.860258,235.132825 Z M294.860258,235.132825" id="Path-35" sketch:type="MSShapeGroup"></path>
            <path d="M391.334361,161.137615 L351.024314,191.542751 L336.70534,225.473328 L370.56179,201.54247 L391.334361,161.137615 Z M391.334361,161.137615" id="Path-36" sketch:type="MSShapeGroup"></path>
            <path d="M315.069428,269.03879 L331.796169,234.758742 L369.258697,207.524636 L352.212034,242.121787 L315.069428,269.03879 Z M315.069428,269.03879" id="Path-37" sketch:type="MSShapeGroup"></path>
            <path d="M297.208472,305.491926 L310.399362,277.409652 L347.194179,249.982432 L333.656616,278.895318 L297.208472,305.491926 Z M297.208472,305.491926" id="Path-38" sketch:type="MSShapeGroup"></path>
            <path d="M298.256854,288.825362 L289.756653,311.58217 L279.059672,319.715134 L276.525366,306.927119 L298.256854,288.825362 Z M298.256854,288.825362" id="Path-39" sketch:type="MSShapeGroup"></path>
            <path d="M271.885272,291.608381 L274.472901,279.787925 L318.154381,246.132208 L303.127011,279.047835 L274.472901,302.559532 L271.885272,291.608381 Z M271.885272,291.608381" id="Path-40" sketch:type="MSShapeGroup"></path>
            <path d="M181.872672,124.303187 L228.13024,92.4079951 L276.397626,134.558014 L239.914369,161.813516 L233.429023,150.654568 L199.556548,136.92132 L181.872672,124.303187 Z M181.872672,124.303187" id="Path-40" sketch:type="MSShapeGroup"></path>
        </g>
    </g>
</svg>