<?xml version="1.0" encoding="UTF-8" standalone="no"?>
<svg width="400px" height="400px" viewBox="0 0 400 400" version="1.1" xmlns="http://www.w3.org/2000/svg" xmlns:xlink="http://www.w3.org/1999/xlink" xmlns:sketch="http://www.bohemiancoding.com/sketch/ns">
    <title>black_rubik</title>
    <description>Created with Sketch (http://www.bohemiancoding.com/sketch)</description>
    <defs></defs>
    <g id="Page-1" stroke="none" stroke-width="1" fill="none" fill-rule="evenodd" sketch:type="MSPage">
        <g id="black_rubik" sketch:type="MSArtboardGroup" stroke="#000000" stroke-width="2" fill="#000000" stroke-linejoin="round">
            <path d="M22.6706054,140.682251 L61.0186177,156.01753 L74.7771313,208.746508 L36.4769351,189.501591 L22.6706054,140.682251 Z M22.6706054,140.682251" id="Path-14" sketch:type="MSShapeGroup"></path>
            <path d="M70.4090106,161.491299 L112.727557,178.424603 L128.048865,233.757791 L87.5515693,215.099805 L70.4090106,161.491299 Z M70.4090106,161.491299" id="Path-14" sketch:type="MSShapeGroup"></path>
            <path d="M120.595539,179.852225 L169.690281,200.591362 L185.135912,258.029321 L138.10913,238.745171 L120.595539,179.852225 Z M120.595539,179.852225" id="Path-14" sketch:type="MSShapeGroup"></path>
            <path d="M197.711424,265.870481 L245.758208,232.486876 L257.813257,289.093612 L211.744585,322.971671 L197.711424,265.870481 Z M197.711424,265.870481" id="Path-23" sketch:type="MSShapeGroup"></path>
            <path d="M216.072349,338.85635 L262.291538,303.482453 L274.493721,356.770535 L228.634186,393.020689 L216.072349,338.85635 Z M216.072349,338.85635" id="Path-23" sketch:type="MSShapeGroup"></path>
            <path d="M143.852711,250.847801 L156.046722,302.757572 L203.157496,325.363177 L190.052945,273.106101 L143.852711,250.847801 Z M143.852711,250.847801" id="Path-19" sketch:type="MSShapeGroup"></path>
            <path d="M41.0315305,200.661273 L76.9569444,217.634952 L92.5019962,269.701117 L56.80323,251.677028 L41.0315305,200.661273 Z M41.0315305,200.661273" id="Path-17" sketch:type="MSShapeGroup"></path>
            <path d="M89.9939973,225.142506 L104.129748,274.206734 L143.335583,294.622662 L130.15252,245.195986 L89.9939973,225.142506 Z M89.9939973,225.142506" id="Path-18" sketch:type="MSShapeGroup"></path>
            <path d="M58.1683939,260.640295 L73.0697112,306.494649 L111.475751,328.632241 L97.2932153,281.600675 L58.1683939,260.640295 Z M58.1683939,260.640295" id="Path-20" sketch:type="MSShapeGroup"></path>
            <path d="M105.906799,286.34559 L120.095299,331.880541 L160.275521,356.356832 L147.842529,307.621555 L105.906799,286.34559 Z M105.906799,286.34559" id="Path-21" sketch:type="MSShapeGroup"></path>
            <path d="M159.765513,316.947132 L172.555611,363.271033 L216.329133,388.643197 L205.039174,337.244948 L159.765513,316.947132 Z M159.765513,316.947132" id="Path-22" sketch:type="MSShapeGroup"></path>
            <path d="M176.902376,197.895607 L230.004092,162.715361 L240.421064,221.149807 L191.828139,256.775468 L176.902376,197.895607 Z M176.902376,197.895607" id="Path-23" sketch:type="MSShapeGroup"></path>
            <path d="M120.595539,168.926602 L171.625884,189.830181 L221.641089,155.626804 L170.609036,133.337881 L120.595539,168.926602 Z M120.595539,168.926602" id="Path-26" sketch:type="MSShapeGroup"></path>
            <path d="M66.7368256,147.244543 L112.544232,164.381644 L161.011679,131.151237 L115.904733,113.752894 L66.7368256,147.244543 Z M66.7368256,147.244543" id="Path-27" sketch:type="MSShapeGroup"></path>
            <path d="M21.4465438,126.439317 L70.5637133,96.6160309 L108.136235,111.366227 L59.2661082,142.211909 L21.4465438,126.439317 Z M21.4465438,126.439317" id="Path-28" sketch:type="MSShapeGroup"></path>
            <path d="M121.819601,69.8722594 L169.925555,40.3091941 L214.842051,80.8116791 L168.972549,113.709315 L121.819601,69.8722594 Z M121.819601,69.8722594" id="Path-29" sketch:type="MSShapeGroup"></path>
            <path d="M178.126438,34.8944688 L224.326379,74.7777526 L268.533625,44.9446581 L224.326379,6.0354673 L178.126438,34.8944688 Z M178.126438,34.8944688" id="Path-30" sketch:type="MSShapeGroup"></path>
            <path d="M234.433274,85.0377959 L281.134614,127.30271 L324.491357,95.4903914 L277.930012,54.9979341 L234.433274,85.0377959 Z M234.433274,85.0377959" id="Path-31" sketch:type="MSShapeGroup"></path>
            <path d="M290.740111,136.373111 L339.714723,180.163302 L383.570516,148.009494 L333.729595,103.960401 L290.740111,136.373111 Z M290.740111,136.373111" id="Path-32" sketch:type="MSShapeGroup"></path>
            <path d="M236.881398,178.498017 L282.876328,144.354436 L331.279253,188.326796 L285.724799,223.66002 L236.881398,178.498017 Z M236.881398,178.498017" id="Path-33" sketch:type="MSShapeGroup"></path>
            <path d="M292.346469,231.964592 L334.812235,197.215028 L319.102017,234.679991 L277.82731,266.064108 L292.346469,231.964592 Z M292.346469,231.964592" id="Path-35" sketch:type="MSShapeGroup"></path>
            <path d="M383.15417,160.267238 L343.866049,190.373247 L329.910085,223.970012 L362.908217,200.274588 L383.15417,160.267238 Z M383.15417,160.267238" id="Path-36" sketch:type="MSShapeGroup"></path>
            <path d="M309.101036,266.466493 L325.403727,232.523695 L361.916518,205.55752 L345.302017,239.814302 L309.101036,266.466493 Z M309.101036,266.466493" id="Path-37" sketch:type="MSShapeGroup"></path>
            <path d="M291.964173,302.139005 L304.820652,274.333006 L340.68266,247.175616 L327.488296,275.804056 L291.964173,302.139005 Z M291.964173,302.139005" id="Path-38" sketch:type="MSShapeGroup"></path>
            <path d="M292.335684,286.34559 L284.050977,308.878515 L273.625182,316.931466 L271.155125,304.269261 L292.335684,286.34559 Z M292.335684,286.34559" id="Path-39" sketch:type="MSShapeGroup"></path>
            <path d="M267.48294,288.532207 L270.004968,276.828041 L312.57905,243.503431 L297.932649,276.095232 L270.004968,299.375619 L267.48294,288.532207 Z M267.48294,288.532207" id="Path-40" sketch:type="MSShapeGroup"></path>
            <path d="M179.350499,123.301189 L224.435362,91.7197842 L271.479091,133.455129 L235.920744,160.44249 L229.599813,149.393324 L196.58606,135.795184 L179.350499,123.301189 Z M179.350499,123.301189" id="Path-40" sketch:type="MSShapeGroup"></path>
        </g>
    </g>
</svg>