<?xml version="1.0" encoding="UTF-8" standalone="no"?>
<svg width="400px" height="400px" viewBox="0 0 400 400" version="1.1" xmlns="http://www.w3.org/2000/svg" xmlns:xlink="http://www.w3.org/1999/xlink" xmlns:sketch="http://www.bohemiancoding.com/sketch/ns">
    <title>heart</title>
    <description>Created with Sketch (http://www.bohemiancoding.com/sketch)</description>
    <defs></defs>
    <g id="Page-1" stroke="none" stroke-width="1" fill="none" fill-rule="evenodd" sketch:type="MSPage">
        <g id="heart" sketch:type="MSArtboardGroup" fill="#000000">
            <g id="Imported-Layers" sketch:type="MSLayerGroup" transform="translate(46.000000, 67.000000)">
                <path d="M154.783366,37.1561993 C164.494423,27.5451209 175.312697,19.1582778 187.059355,12.0012095 C203.532937,1.96469542 221.291465,-1.71465808 240.455264,0.877840321 C251.954648,2.43444727 262.966105,5.2429872 273.087815,11.071677 C288.163852,19.7510071 298.445628,32.4309832 304.023663,48.8855927 C308.55961,62.2624413 309.940596,76.0735888 308.387401,90.0908066 C306.986545,102.734222 302.361181,114.33399 296.019244,125.272339 C286.813776,141.14973 274.438995,154.340451 261.276026,166.917392 C242.964442,184.41454 224.842729,202.112219 206.6316,219.716834 C191.931994,233.927936 177.236804,248.144577 162.507393,262.323549 C157.40735,267.230461 151.481585,267.228245 146.383749,262.300283 C126.849038,243.416037 107.350755,224.493014 87.8370174,205.58661 C71.8292837,190.077044 55.8292774,174.559722 39.807193,159.065667 C24.3381652,144.105622 11.7459152,127.227792 4.56280208,106.640696 C0.0997121491,93.8499293 -0.914777005,80.8054523 0.762055449,67.4097693 C2.00946866,57.4364058 4.43143733,47.8497013 9.08991854,38.9343873 C17.1031686,23.5998701 29.1942455,12.6781397 45.3223048,6.58022889 C62.7132321,0.00370304031 80.6119559,-2.05589291 98.891527,2.2948512 C112.66054,5.57203507 124.496615,12.8221673 135.573203,21.3474986 C142.049816,26.3308567 148.211817,31.7252476 154.783366,37.1561993" id="Fill-2" sketch:type="MSShapeGroup"></path>
            </g>
        </g>
    </g>
</svg>