<?xml version="1.0" encoding="UTF-8" standalone="no"?>
<svg width="400px" height="400px" viewBox="0 0 400 400" version="1.1" xmlns="http://www.w3.org/2000/svg" xmlns:xlink="http://www.w3.org/1999/xlink" xmlns:sketch="http://www.bohemiancoding.com/sketch/ns">
    <title>network</title>
    <description>Created with Sketch (http://www.bohemiancoding.com/sketch)</description>
    <defs></defs>
    <g id="Page-1" stroke="none" stroke-width="1" fill="none" fill-rule="evenodd" sketch:type="MSPage">
        <g id="network" sketch:type="MSArtboardGroup">
            <g id="Group-+-Group" sketch:type="MSLayerGroup" transform="translate(14.000000, 26.000000)">
                <g id="Group" transform="translate(25.000000, 13.000000)" stroke="#000000" stroke-linecap="square" sketch:type="MSShapeGroup">
                    <path d="M49.7938931,4.16666667 L256.206107,0.833333333" id="Line" stroke-width="10"></path>
                    <path d="M257.791667,0.790540541 L332.208333,116.209459" id="Line" stroke-width="11"></path>
                    <path d="M332.2,118.204082 L325.8,41.7959184" id="Line" stroke-width="5"></path>
                    <path d="M75.7910448,79.8 L180.208955,94.2" id="Line" stroke-width="17"></path>
                    <path d="M0.791666667,191.203125 L75.2083333,141.796875" id="Line" stroke-width="13"></path>
                    <path d="M130.791667,318.203704 L243.208333,233.796296" id="Line" stroke-width="17"></path>
                    <path d="M181.794872,93.7912088 L242.205128,236.208791" id="Line" stroke-width="17"></path>
                    <path d="M319.205882,327.211864 L239.794118,235.788136" id="Line" stroke-width="7"></path>
                    <path d="M0.791666667,190.795181 L132.208333,321.204819" id="Line" stroke-width="17"></path>
                    <path d="M181.791667,98.204918 L256.208333,2.79508197" id="Line" stroke-width="17"></path>
                    <path d="M238.5,236.5 L140.5,201.5" id="Line" stroke-width="13"></path>
                    <path d="M79.5,81.5 L17,52" id="Line" stroke-width="7"></path>
                </g>
                <g id="Group" fill="#000000" sketch:type="MSShapeGroup">
                    <circle d="M28,232 C43.4639738,232 56,219.463974 56,204 C56,188.536026 43.4639738,176 28,176 C12.5360262,176 0,188.536026 0,204 C0,219.463974 12.5360262,232 28,232 Z M28,232" id="Oval-4" cx="28" cy="204" r="28"></circle>
                    <circle d="M268,277 C283.463974,277 296,264.463974 296,249 C296,233.536026 283.463974,221 268,221 C252.536026,221 240,233.536026 240,249 C240,264.463974 252.536026,277 268,277 Z M268,277" id="Oval-4" cx="268" cy="249" r="28"></circle>
                    <circle d="M155.5,349 C166.821838,349 176,339.821838 176,328.5 C176,317.178162 166.821838,308 155.5,308 C144.178162,308 135,317.178162 135,328.5 C135,339.821838 144.178162,349 155.5,349 Z M155.5,349" id="Oval-4" cx="155.5" cy="328.5" r="20.5"></circle>
                    <circle d="M101,170 C109.284272,170 116,163.284272 116,155 C116,146.715728 109.284272,140 101,140 C92.7157283,140 86,146.715728 86,155 C86,163.284272 92.7157283,170 101,170 Z M101,170" id="Oval-4" cx="101" cy="155" r="15"></circle>
                    <circle d="M161,227 C169.284272,227 176,220.284272 176,212 C176,203.715728 169.284272,197 161,197 C152.715728,197 146,203.715728 146,212 C146,220.284272 152.715728,227 161,227 Z M161,227" id="Oval-4" cx="161" cy="212" r="15"></circle>
                    <circle d="M101,109 C109.284272,109 116,102.284272 116,94 C116,85.7157283 109.284272,79 101,79 C92.7157283,79 86,85.7157283 86,94 C86,102.284272 92.7157283,109 101,109 Z M101,109" id="Oval-4" cx="101" cy="94" r="15"></circle>
                    <circle d="M358,144 C366.284272,144 373,137.284272 373,129 C373,120.715728 366.284272,114 358,114 C349.715728,114 343,120.715728 343,129 C343,137.284272 349.715728,144 358,144 Z M358,144" id="Oval-4" cx="358" cy="129" r="15"></circle>
                    <circle d="M283,30 C291.284272,30 298,23.2842717 298,15 C298,6.71572834 291.284272,0 283,0 C274.715728,0 268,6.71572834 268,15 C268,23.2842717 274.715728,30 283,30 Z M283,30" id="Oval-4" cx="283" cy="15" r="15"></circle>
                    <circle d="M75,33 C83.2842717,33 90,26.2842717 90,18 C90,9.71572834 83.2842717,3 75,3 C66.7157283,3 60,9.71572834 60,18 C60,26.2842717 66.7157283,33 75,33 Z M75,33" id="Oval-4" cx="75" cy="18" r="15"></circle>
                    <circle d="M351,64 C355.418278,64 359,60.4182782 359,56 C359,51.5817218 355.418278,48 351,48 C346.581722,48 343,51.5817218 343,56 C343,60.4182782 346.581722,64 351,64 Z M351,64" id="Oval-4" cx="351" cy="56" r="8"></circle>
                    <circle d="M346,349 C350.418278,349 354,345.418278 354,341 C354,336.581722 350.418278,333 346,333 C341.581722,333 338,336.581722 338,341 C338,345.418278 341.581722,349 346,349 Z M346,349" id="Oval-4" cx="346" cy="341" r="8"></circle>
                    <circle d="M39,71 C43.4182782,71 47,67.4182782 47,63 C47,58.5817218 43.4182782,55 39,55 C34.5817218,55 31,58.5817218 31,63 C31,67.4182782 34.5817218,71 39,71 Z M39,71" id="Oval-4" cx="39" cy="63" r="8"></circle>
                    <circle d="M207,137 C222.463974,137 235,124.463974 235,109 C235,93.5360262 222.463974,81 207,81 C191.536026,81 179,93.5360262 179,109 C179,124.463974 191.536026,137 207,137 Z M207,137" id="Oval-4" cx="207" cy="109" r="28"></circle>
                </g>
            </g>
        </g>
    </g>
</svg>